<mxfile host="Electron" modified="2023-11-02T09:40:28.487Z" agent="Mozilla/5.0 (Macintosh; Intel Mac OS X 10_15_7) AppleWebKit/537.36 (KHTML, like Gecko) draw.io/22.0.3 Chrome/114.0.5735.289 Electron/25.8.4 Safari/537.36" etag="W9wGKX5RxBz6-fKsU3FQ" version="22.0.3" type="device">
  <diagram id="C5RBs43oDa-KdzZeNtuy" name="Page-1">
    <mxGraphModel dx="1812" dy="974" grid="1" gridSize="10" guides="1" tooltips="1" connect="1" arrows="1" fold="1" page="1" pageScale="1" pageWidth="850" pageHeight="1100" math="0" shadow="0">
      <root>
        <mxCell id="WIyWlLk6GJQsqaUBKTNV-0" />
        <mxCell id="WIyWlLk6GJQsqaUBKTNV-1" parent="WIyWlLk6GJQsqaUBKTNV-0" />
        <mxCell id="1AGpM3HlhtMT_DyU8kE3-12" style="edgeStyle=orthogonalEdgeStyle;rounded=0;orthogonalLoop=1;jettySize=auto;html=1;entryX=0.5;entryY=0;entryDx=0;entryDy=0;" edge="1" parent="WIyWlLk6GJQsqaUBKTNV-1" source="WIyWlLk6GJQsqaUBKTNV-3" target="0Jxxm2ywJmRgCIR1YkOT-1">
          <mxGeometry relative="1" as="geometry" />
        </mxCell>
        <mxCell id="WIyWlLk6GJQsqaUBKTNV-3" value="Review eDelphi" style="rounded=1;whiteSpace=wrap;html=1;fontSize=12;glass=0;strokeWidth=1;shadow=0;" parent="WIyWlLk6GJQsqaUBKTNV-1" vertex="1">
          <mxGeometry x="160" y="80" width="120" height="40" as="geometry" />
        </mxCell>
        <mxCell id="0Jxxm2ywJmRgCIR1YkOT-1" value="Anonymous e-Delphi survey: 9-point Likert scale" style="rounded=1;whiteSpace=wrap;html=1;fontSize=12;glass=0;strokeWidth=1;shadow=0;" parent="WIyWlLk6GJQsqaUBKTNV-1" vertex="1">
          <mxGeometry x="115" y="150" width="210" height="40" as="geometry" />
        </mxCell>
        <mxCell id="0Jxxm2ywJmRgCIR1YkOT-2" value="" style="endArrow=none;html=1;rounded=0;exitX=0.5;exitY=0;exitDx=0;exitDy=0;" parent="WIyWlLk6GJQsqaUBKTNV-1" edge="1" source="0Jxxm2ywJmRgCIR1YkOT-6">
          <mxGeometry width="50" height="50" relative="1" as="geometry">
            <mxPoint x="50" y="200" as="sourcePoint" />
            <mxPoint x="219.5" y="190" as="targetPoint" />
            <Array as="points">
              <mxPoint x="140" y="240" />
              <mxPoint x="220" y="240" />
            </Array>
          </mxGeometry>
        </mxCell>
        <mxCell id="1AGpM3HlhtMT_DyU8kE3-3" value="" style="edgeStyle=orthogonalEdgeStyle;rounded=0;orthogonalLoop=1;jettySize=auto;html=1;entryX=0.5;entryY=0;entryDx=0;entryDy=0;" edge="1" parent="WIyWlLk6GJQsqaUBKTNV-1" source="0Jxxm2ywJmRgCIR1YkOT-6" target="0Jxxm2ywJmRgCIR1YkOT-14">
          <mxGeometry relative="1" as="geometry">
            <Array as="points">
              <mxPoint x="140" y="380" />
              <mxPoint x="45" y="380" />
            </Array>
          </mxGeometry>
        </mxCell>
        <mxCell id="1AGpM3HlhtMT_DyU8kE3-4" style="edgeStyle=orthogonalEdgeStyle;rounded=0;orthogonalLoop=1;jettySize=auto;html=1;entryX=0.5;entryY=0;entryDx=0;entryDy=0;" edge="1" parent="WIyWlLk6GJQsqaUBKTNV-1" source="0Jxxm2ywJmRgCIR1YkOT-6" target="0Jxxm2ywJmRgCIR1YkOT-17">
          <mxGeometry relative="1" as="geometry" />
        </mxCell>
        <mxCell id="1AGpM3HlhtMT_DyU8kE3-5" style="edgeStyle=orthogonalEdgeStyle;rounded=0;orthogonalLoop=1;jettySize=auto;html=1;exitX=0.5;exitY=1;exitDx=0;exitDy=0;entryX=0.5;entryY=0;entryDx=0;entryDy=0;" edge="1" parent="WIyWlLk6GJQsqaUBKTNV-1" source="0Jxxm2ywJmRgCIR1YkOT-6" target="0Jxxm2ywJmRgCIR1YkOT-20">
          <mxGeometry relative="1" as="geometry" />
        </mxCell>
        <mxCell id="0Jxxm2ywJmRgCIR1YkOT-6" value="Consensus" style="rounded=1;whiteSpace=wrap;html=1;" parent="WIyWlLk6GJQsqaUBKTNV-1" vertex="1">
          <mxGeometry x="80" y="290" width="120" height="40" as="geometry" />
        </mxCell>
        <mxCell id="0Jxxm2ywJmRgCIR1YkOT-51" style="edgeStyle=elbowEdgeStyle;rounded=0;orthogonalLoop=1;jettySize=auto;html=1;dashed=1;entryX=0;entryY=0.5;entryDx=0;entryDy=0;exitX=1;exitY=0.5;exitDx=0;exitDy=0;" parent="WIyWlLk6GJQsqaUBKTNV-1" edge="1" target="0Jxxm2ywJmRgCIR1YkOT-52" source="0Jxxm2ywJmRgCIR1YkOT-89">
          <mxGeometry relative="1" as="geometry">
            <mxPoint x="570" y="90" as="targetPoint" />
            <mxPoint x="390" y="390" as="sourcePoint" />
            <Array as="points">
              <mxPoint x="420" y="240" />
            </Array>
          </mxGeometry>
        </mxCell>
        <mxCell id="0Jxxm2ywJmRgCIR1YkOT-88" style="edgeStyle=orthogonalEdgeStyle;rounded=0;orthogonalLoop=1;jettySize=auto;html=1;entryX=0.5;entryY=0;entryDx=0;entryDy=0;" parent="WIyWlLk6GJQsqaUBKTNV-1" source="0Jxxm2ywJmRgCIR1YkOT-7" edge="1" target="0Jxxm2ywJmRgCIR1YkOT-89">
          <mxGeometry relative="1" as="geometry">
            <mxPoint x="330" y="380" as="targetPoint" />
          </mxGeometry>
        </mxCell>
        <mxCell id="0Jxxm2ywJmRgCIR1YkOT-7" value="No consensus" style="rounded=1;whiteSpace=wrap;html=1;" parent="WIyWlLk6GJQsqaUBKTNV-1" vertex="1">
          <mxGeometry x="270" y="290" width="120" height="40" as="geometry" />
        </mxCell>
        <mxCell id="0Jxxm2ywJmRgCIR1YkOT-14" value="Excluded item" style="rounded=1;whiteSpace=wrap;html=1;fontSize=12;glass=0;strokeWidth=1;shadow=0;" parent="WIyWlLk6GJQsqaUBKTNV-1" vertex="1">
          <mxGeometry y="430" width="90" height="40" as="geometry" />
        </mxCell>
        <mxCell id="0Jxxm2ywJmRgCIR1YkOT-17" value="Further discussion&amp;nbsp;" style="rounded=1;whiteSpace=wrap;html=1;fontSize=12;glass=0;strokeWidth=1;shadow=0;" parent="WIyWlLk6GJQsqaUBKTNV-1" vertex="1">
          <mxGeometry x="95" y="430" width="90" height="40" as="geometry" />
        </mxCell>
        <mxCell id="0Jxxm2ywJmRgCIR1YkOT-18" value="1-3 category" style="text;html=1;strokeColor=none;fillColor=none;align=center;verticalAlign=middle;whiteSpace=wrap;rounded=0;" parent="WIyWlLk6GJQsqaUBKTNV-1" vertex="1">
          <mxGeometry x="10" y="470" width="60" height="30" as="geometry" />
        </mxCell>
        <mxCell id="0Jxxm2ywJmRgCIR1YkOT-19" value="4-6 category" style="text;html=1;strokeColor=none;fillColor=none;align=center;verticalAlign=middle;whiteSpace=wrap;rounded=0;" parent="WIyWlLk6GJQsqaUBKTNV-1" vertex="1">
          <mxGeometry x="110" y="470" width="60" height="30" as="geometry" />
        </mxCell>
        <mxCell id="0Jxxm2ywJmRgCIR1YkOT-20" value="core item" style="rounded=1;whiteSpace=wrap;html=1;fontSize=12;glass=0;strokeWidth=1;shadow=0;" parent="WIyWlLk6GJQsqaUBKTNV-1" vertex="1">
          <mxGeometry x="195" y="430" width="85" height="40" as="geometry" />
        </mxCell>
        <mxCell id="0Jxxm2ywJmRgCIR1YkOT-21" value="7-9 category" style="text;html=1;strokeColor=none;fillColor=none;align=center;verticalAlign=middle;whiteSpace=wrap;rounded=0;" parent="WIyWlLk6GJQsqaUBKTNV-1" vertex="1">
          <mxGeometry x="210" y="470" width="60" height="30" as="geometry" />
        </mxCell>
        <mxCell id="1AGpM3HlhtMT_DyU8kE3-17" style="edgeStyle=orthogonalEdgeStyle;rounded=0;orthogonalLoop=1;jettySize=auto;html=1;entryX=0.5;entryY=0;entryDx=0;entryDy=0;" edge="1" parent="WIyWlLk6GJQsqaUBKTNV-1" source="0Jxxm2ywJmRgCIR1YkOT-24" target="0Jxxm2ywJmRgCIR1YkOT-43">
          <mxGeometry relative="1" as="geometry" />
        </mxCell>
        <mxCell id="1AGpM3HlhtMT_DyU8kE3-18" style="edgeStyle=orthogonalEdgeStyle;rounded=0;orthogonalLoop=1;jettySize=auto;html=1;entryX=0.5;entryY=0;entryDx=0;entryDy=0;" edge="1" parent="WIyWlLk6GJQsqaUBKTNV-1" source="0Jxxm2ywJmRgCIR1YkOT-24" target="0Jxxm2ywJmRgCIR1YkOT-47">
          <mxGeometry relative="1" as="geometry" />
        </mxCell>
        <mxCell id="0Jxxm2ywJmRgCIR1YkOT-24" value="&lt;font style=&quot;font-size: 14px;&quot;&gt;Hybrid (in-person and online meeting with discussion and e-Delphi survey (9-point Likert scale)&lt;/font&gt;" style="rounded=1;whiteSpace=wrap;html=1;" parent="WIyWlLk6GJQsqaUBKTNV-1" vertex="1">
          <mxGeometry x="30" y="560" width="580" height="60" as="geometry" />
        </mxCell>
        <mxCell id="0Jxxm2ywJmRgCIR1YkOT-26" value="&lt;font style=&quot;font-size: 18px;&quot;&gt;Consensus meeting&lt;/font&gt;" style="text;html=1;strokeColor=none;fillColor=none;align=center;verticalAlign=middle;whiteSpace=wrap;rounded=0;" parent="WIyWlLk6GJQsqaUBKTNV-1" vertex="1">
          <mxGeometry x="250" y="520" width="160" height="30" as="geometry" />
        </mxCell>
        <mxCell id="0Jxxm2ywJmRgCIR1YkOT-29" value="Excluded item" style="rounded=1;whiteSpace=wrap;html=1;" parent="WIyWlLk6GJQsqaUBKTNV-1" vertex="1">
          <mxGeometry x="-30" y="890" width="90" height="40" as="geometry" />
        </mxCell>
        <mxCell id="0Jxxm2ywJmRgCIR1YkOT-33" value="Core item" style="rounded=1;whiteSpace=wrap;html=1;" parent="WIyWlLk6GJQsqaUBKTNV-1" vertex="1">
          <mxGeometry x="230" y="890" width="90" height="40" as="geometry" />
        </mxCell>
        <mxCell id="0Jxxm2ywJmRgCIR1YkOT-34" value="Opional item" style="rounded=1;whiteSpace=wrap;html=1;" parent="WIyWlLk6GJQsqaUBKTNV-1" vertex="1">
          <mxGeometry x="100" y="890" width="90" height="40" as="geometry" />
        </mxCell>
        <mxCell id="0Jxxm2ywJmRgCIR1YkOT-37" value="1-3 category" style="text;html=1;strokeColor=none;fillColor=none;align=center;verticalAlign=middle;whiteSpace=wrap;rounded=0;" parent="WIyWlLk6GJQsqaUBKTNV-1" vertex="1">
          <mxGeometry x="-20" y="930" width="60" height="30" as="geometry" />
        </mxCell>
        <mxCell id="0Jxxm2ywJmRgCIR1YkOT-38" value="4-6 category" style="text;html=1;strokeColor=none;fillColor=none;align=center;verticalAlign=middle;whiteSpace=wrap;rounded=0;" parent="WIyWlLk6GJQsqaUBKTNV-1" vertex="1">
          <mxGeometry x="115" y="930" width="60" height="30" as="geometry" />
        </mxCell>
        <mxCell id="0Jxxm2ywJmRgCIR1YkOT-39" value="7-9 category" style="text;html=1;strokeColor=none;fillColor=none;align=center;verticalAlign=middle;whiteSpace=wrap;rounded=0;" parent="WIyWlLk6GJQsqaUBKTNV-1" vertex="1">
          <mxGeometry x="245" y="930" width="60" height="30" as="geometry" />
        </mxCell>
        <mxCell id="1AGpM3HlhtMT_DyU8kE3-20" style="edgeStyle=orthogonalEdgeStyle;rounded=0;orthogonalLoop=1;jettySize=auto;html=1;entryX=0.5;entryY=0;entryDx=0;entryDy=0;" edge="1" parent="WIyWlLk6GJQsqaUBKTNV-1" source="0Jxxm2ywJmRgCIR1YkOT-43" target="0Jxxm2ywJmRgCIR1YkOT-29">
          <mxGeometry relative="1" as="geometry" />
        </mxCell>
        <mxCell id="1AGpM3HlhtMT_DyU8kE3-21" style="edgeStyle=orthogonalEdgeStyle;rounded=0;orthogonalLoop=1;jettySize=auto;html=1;entryX=0.5;entryY=0;entryDx=0;entryDy=0;" edge="1" parent="WIyWlLk6GJQsqaUBKTNV-1" source="0Jxxm2ywJmRgCIR1YkOT-43" target="0Jxxm2ywJmRgCIR1YkOT-34">
          <mxGeometry relative="1" as="geometry" />
        </mxCell>
        <mxCell id="1AGpM3HlhtMT_DyU8kE3-22" style="edgeStyle=orthogonalEdgeStyle;rounded=0;orthogonalLoop=1;jettySize=auto;html=1;entryX=0.5;entryY=0;entryDx=0;entryDy=0;" edge="1" parent="WIyWlLk6GJQsqaUBKTNV-1" source="0Jxxm2ywJmRgCIR1YkOT-43" target="0Jxxm2ywJmRgCIR1YkOT-33">
          <mxGeometry relative="1" as="geometry" />
        </mxCell>
        <mxCell id="0Jxxm2ywJmRgCIR1YkOT-43" value="Consensus" style="rounded=1;whiteSpace=wrap;html=1;" parent="WIyWlLk6GJQsqaUBKTNV-1" vertex="1">
          <mxGeometry x="10" y="730" width="340" height="60" as="geometry" />
        </mxCell>
        <mxCell id="1AGpM3HlhtMT_DyU8kE3-19" style="edgeStyle=orthogonalEdgeStyle;rounded=0;orthogonalLoop=1;jettySize=auto;html=1;entryX=0.5;entryY=0;entryDx=0;entryDy=0;" edge="1" parent="WIyWlLk6GJQsqaUBKTNV-1" source="0Jxxm2ywJmRgCIR1YkOT-47" target="0Jxxm2ywJmRgCIR1YkOT-49">
          <mxGeometry relative="1" as="geometry" />
        </mxCell>
        <mxCell id="0Jxxm2ywJmRgCIR1YkOT-47" value="No consensus" style="rounded=1;whiteSpace=wrap;html=1;" parent="WIyWlLk6GJQsqaUBKTNV-1" vertex="1">
          <mxGeometry x="460" y="730" width="120" height="40" as="geometry" />
        </mxCell>
        <mxCell id="0Jxxm2ywJmRgCIR1YkOT-49" value="excluded item" style="rounded=1;whiteSpace=wrap;html=1;" parent="WIyWlLk6GJQsqaUBKTNV-1" vertex="1">
          <mxGeometry x="460" y="830" width="120" height="40" as="geometry" />
        </mxCell>
        <mxCell id="1AGpM3HlhtMT_DyU8kE3-11" style="edgeStyle=orthogonalEdgeStyle;rounded=0;orthogonalLoop=1;jettySize=auto;html=1;entryX=0.5;entryY=0;entryDx=0;entryDy=0;" edge="1" parent="WIyWlLk6GJQsqaUBKTNV-1" source="0Jxxm2ywJmRgCIR1YkOT-52" target="0Jxxm2ywJmRgCIR1YkOT-57">
          <mxGeometry relative="1" as="geometry" />
        </mxCell>
        <mxCell id="0Jxxm2ywJmRgCIR1YkOT-52" value="Review new and non consenus items" style="rounded=1;whiteSpace=wrap;html=1;" parent="WIyWlLk6GJQsqaUBKTNV-1" vertex="1">
          <mxGeometry x="570" y="60" width="120" height="60" as="geometry" />
        </mxCell>
        <mxCell id="0Jxxm2ywJmRgCIR1YkOT-53" value="Round 2 e-delphi" style="text;html=1;strokeColor=none;fillColor=none;align=center;verticalAlign=middle;whiteSpace=wrap;rounded=0;" parent="WIyWlLk6GJQsqaUBKTNV-1" vertex="1">
          <mxGeometry x="600" y="20" width="60" height="30" as="geometry" />
        </mxCell>
        <mxCell id="1AGpM3HlhtMT_DyU8kE3-9" style="edgeStyle=orthogonalEdgeStyle;rounded=0;orthogonalLoop=1;jettySize=auto;html=1;entryX=0.5;entryY=0;entryDx=0;entryDy=0;" edge="1" parent="WIyWlLk6GJQsqaUBKTNV-1" source="0Jxxm2ywJmRgCIR1YkOT-57" target="0Jxxm2ywJmRgCIR1YkOT-63">
          <mxGeometry relative="1" as="geometry" />
        </mxCell>
        <mxCell id="1AGpM3HlhtMT_DyU8kE3-10" style="edgeStyle=orthogonalEdgeStyle;rounded=0;orthogonalLoop=1;jettySize=auto;html=1;entryX=0.5;entryY=0;entryDx=0;entryDy=0;" edge="1" parent="WIyWlLk6GJQsqaUBKTNV-1" source="0Jxxm2ywJmRgCIR1YkOT-57" target="0Jxxm2ywJmRgCIR1YkOT-64">
          <mxGeometry relative="1" as="geometry" />
        </mxCell>
        <mxCell id="0Jxxm2ywJmRgCIR1YkOT-57" value="Anonymous e-Delphi survey 9-point Likert scale" style="rounded=1;whiteSpace=wrap;html=1;" parent="WIyWlLk6GJQsqaUBKTNV-1" vertex="1">
          <mxGeometry x="570" y="180" width="120" height="60" as="geometry" />
        </mxCell>
        <mxCell id="1AGpM3HlhtMT_DyU8kE3-6" style="edgeStyle=orthogonalEdgeStyle;rounded=0;orthogonalLoop=1;jettySize=auto;html=1;entryX=0.5;entryY=0;entryDx=0;entryDy=0;" edge="1" parent="WIyWlLk6GJQsqaUBKTNV-1" source="0Jxxm2ywJmRgCIR1YkOT-63" target="0Jxxm2ywJmRgCIR1YkOT-77">
          <mxGeometry relative="1" as="geometry" />
        </mxCell>
        <mxCell id="1AGpM3HlhtMT_DyU8kE3-7" style="edgeStyle=orthogonalEdgeStyle;rounded=0;orthogonalLoop=1;jettySize=auto;html=1;entryX=0.5;entryY=0;entryDx=0;entryDy=0;" edge="1" parent="WIyWlLk6GJQsqaUBKTNV-1" source="0Jxxm2ywJmRgCIR1YkOT-63" target="0Jxxm2ywJmRgCIR1YkOT-78">
          <mxGeometry relative="1" as="geometry" />
        </mxCell>
        <mxCell id="1AGpM3HlhtMT_DyU8kE3-8" style="edgeStyle=orthogonalEdgeStyle;rounded=0;orthogonalLoop=1;jettySize=auto;html=1;entryX=0.5;entryY=0;entryDx=0;entryDy=0;" edge="1" parent="WIyWlLk6GJQsqaUBKTNV-1" source="0Jxxm2ywJmRgCIR1YkOT-63" target="0Jxxm2ywJmRgCIR1YkOT-81">
          <mxGeometry relative="1" as="geometry" />
        </mxCell>
        <mxCell id="0Jxxm2ywJmRgCIR1YkOT-63" value="consensus" style="rounded=1;whiteSpace=wrap;html=1;" parent="WIyWlLk6GJQsqaUBKTNV-1" vertex="1">
          <mxGeometry x="520" y="320" width="110" height="40" as="geometry" />
        </mxCell>
        <mxCell id="1AGpM3HlhtMT_DyU8kE3-13" style="edgeStyle=orthogonalEdgeStyle;rounded=0;orthogonalLoop=1;jettySize=auto;html=1;entryX=0.5;entryY=0;entryDx=0;entryDy=0;" edge="1" parent="WIyWlLk6GJQsqaUBKTNV-1" source="0Jxxm2ywJmRgCIR1YkOT-64" target="0Jxxm2ywJmRgCIR1YkOT-86">
          <mxGeometry relative="1" as="geometry" />
        </mxCell>
        <mxCell id="0Jxxm2ywJmRgCIR1YkOT-64" value="No consensus" style="rounded=1;whiteSpace=wrap;html=1;" parent="WIyWlLk6GJQsqaUBKTNV-1" vertex="1">
          <mxGeometry x="665" y="320" width="90" height="40" as="geometry" />
        </mxCell>
        <mxCell id="0Jxxm2ywJmRgCIR1YkOT-77" value="Excluded item" style="rounded=1;whiteSpace=wrap;html=1;fontSize=12;glass=0;strokeWidth=1;shadow=0;" parent="WIyWlLk6GJQsqaUBKTNV-1" vertex="1">
          <mxGeometry x="435" y="450" width="90" height="40" as="geometry" />
        </mxCell>
        <mxCell id="0Jxxm2ywJmRgCIR1YkOT-78" value="Further discussion&amp;nbsp;" style="rounded=1;whiteSpace=wrap;html=1;fontSize=12;glass=0;strokeWidth=1;shadow=0;" parent="WIyWlLk6GJQsqaUBKTNV-1" vertex="1">
          <mxGeometry x="530" y="450" width="90" height="40" as="geometry" />
        </mxCell>
        <mxCell id="0Jxxm2ywJmRgCIR1YkOT-79" value="1-3 category" style="text;html=1;strokeColor=none;fillColor=none;align=center;verticalAlign=middle;whiteSpace=wrap;rounded=0;" parent="WIyWlLk6GJQsqaUBKTNV-1" vertex="1">
          <mxGeometry x="445" y="490" width="60" height="30" as="geometry" />
        </mxCell>
        <mxCell id="0Jxxm2ywJmRgCIR1YkOT-80" value="4-6 category" style="text;html=1;strokeColor=none;fillColor=none;align=center;verticalAlign=middle;whiteSpace=wrap;rounded=0;" parent="WIyWlLk6GJQsqaUBKTNV-1" vertex="1">
          <mxGeometry x="545" y="490" width="60" height="30" as="geometry" />
        </mxCell>
        <mxCell id="0Jxxm2ywJmRgCIR1YkOT-81" value="core item" style="rounded=1;whiteSpace=wrap;html=1;fontSize=12;glass=0;strokeWidth=1;shadow=0;" parent="WIyWlLk6GJQsqaUBKTNV-1" vertex="1">
          <mxGeometry x="630" y="450" width="85" height="40" as="geometry" />
        </mxCell>
        <mxCell id="0Jxxm2ywJmRgCIR1YkOT-82" value="7-9 category" style="text;html=1;strokeColor=none;fillColor=none;align=center;verticalAlign=middle;whiteSpace=wrap;rounded=0;" parent="WIyWlLk6GJQsqaUBKTNV-1" vertex="1">
          <mxGeometry x="645" y="490" width="60" height="30" as="geometry" />
        </mxCell>
        <mxCell id="1AGpM3HlhtMT_DyU8kE3-14" style="edgeStyle=orthogonalEdgeStyle;rounded=0;orthogonalLoop=1;jettySize=auto;html=1;entryX=1;entryY=0.5;entryDx=0;entryDy=0;" edge="1" parent="WIyWlLk6GJQsqaUBKTNV-1" source="0Jxxm2ywJmRgCIR1YkOT-86" target="0Jxxm2ywJmRgCIR1YkOT-24">
          <mxGeometry relative="1" as="geometry">
            <Array as="points">
              <mxPoint x="760" y="590" />
            </Array>
          </mxGeometry>
        </mxCell>
        <mxCell id="0Jxxm2ywJmRgCIR1YkOT-86" value="Further discussion" style="rounded=1;whiteSpace=wrap;html=1;" parent="WIyWlLk6GJQsqaUBKTNV-1" vertex="1">
          <mxGeometry x="715" y="490" width="90" height="40" as="geometry" />
        </mxCell>
        <mxCell id="0Jxxm2ywJmRgCIR1YkOT-89" value="Further disscution" style="rounded=1;whiteSpace=wrap;html=1;" parent="WIyWlLk6GJQsqaUBKTNV-1" vertex="1">
          <mxGeometry x="270" y="390" width="120" height="30" as="geometry" />
        </mxCell>
        <mxCell id="1AGpM3HlhtMT_DyU8kE3-2" value="" style="endArrow=none;html=1;rounded=0;entryX=0.5;entryY=1;entryDx=0;entryDy=0;exitX=0.5;exitY=0;exitDx=0;exitDy=0;" edge="1" parent="WIyWlLk6GJQsqaUBKTNV-1" source="0Jxxm2ywJmRgCIR1YkOT-7" target="0Jxxm2ywJmRgCIR1YkOT-1">
          <mxGeometry width="50" height="50" relative="1" as="geometry">
            <mxPoint x="320" y="210" as="sourcePoint" />
            <mxPoint x="229.5" y="200" as="targetPoint" />
            <Array as="points">
              <mxPoint x="330" y="240" />
              <mxPoint x="220" y="240" />
            </Array>
          </mxGeometry>
        </mxCell>
        <mxCell id="1AGpM3HlhtMT_DyU8kE3-15" style="edgeStyle=orthogonalEdgeStyle;rounded=0;orthogonalLoop=1;jettySize=auto;html=1;entryX=0.94;entryY=-0.033;entryDx=0;entryDy=0;entryPerimeter=0;" edge="1" parent="WIyWlLk6GJQsqaUBKTNV-1" source="0Jxxm2ywJmRgCIR1YkOT-80" target="0Jxxm2ywJmRgCIR1YkOT-24">
          <mxGeometry relative="1" as="geometry" />
        </mxCell>
        <mxCell id="1AGpM3HlhtMT_DyU8kE3-16" style="edgeStyle=orthogonalEdgeStyle;rounded=0;orthogonalLoop=1;jettySize=auto;html=1;entryX=0.19;entryY=0.017;entryDx=0;entryDy=0;entryPerimeter=0;" edge="1" parent="WIyWlLk6GJQsqaUBKTNV-1" source="0Jxxm2ywJmRgCIR1YkOT-19" target="0Jxxm2ywJmRgCIR1YkOT-24">
          <mxGeometry relative="1" as="geometry" />
        </mxCell>
      </root>
    </mxGraphModel>
  </diagram>
</mxfile>
